<svg xmlns="http://www.w3.org/2000/svg" width="1280" height="720" viewBox="0 0 1280 720">
    <defs>
      <linearGradient id="bg" x1="0" y1="0" x2="1" y2="1">
        <stop offset="0" stop-color="#05070d"/><stop offset=".45" stop-color="#0c1220"/><stop offset="1" stop-color="#020308"/>
      </linearGradient>
      <radialGradient id="glow" cx=".68" cy=".28" r=".7"><stop offset="0" stop-color="#35f3ff" stop-opacity=".42"/><stop offset=".55" stop-color="#2c7dff" stop-opacity=".12"/><stop offset="1" stop-color="#c65cff" stop-opacity="0"/></radialGradient>
      <filter id="blur"><feGaussianBlur stdDeviation="20"/></filter>
    </defs>
    <rect width="1280" height="720" fill="url(#bg)"/>
    <rect width="1280" height="720" fill="url(#glow)"/>
    <g opacity=".16"><path d="M0 0H1280" stroke="#fff"/><path d="M0 0V720" stroke="#fff"/><path d="M0 46H1280" stroke="#fff"/><path d="M76 0V720" stroke="#fff"/><path d="M0 92H1280" stroke="#fff"/><path d="M152 0V720" stroke="#fff"/><path d="M0 138H1280" stroke="#fff"/><path d="M228 0V720" stroke="#fff"/><path d="M0 184H1280" stroke="#fff"/><path d="M304 0V720" stroke="#fff"/><path d="M0 230H1280" stroke="#fff"/><path d="M380 0V720" stroke="#fff"/><path d="M0 276H1280" stroke="#fff"/><path d="M456 0V720" stroke="#fff"/><path d="M0 322H1280" stroke="#fff"/><path d="M532 0V720" stroke="#fff"/><path d="M0 368H1280" stroke="#fff"/><path d="M608 0V720" stroke="#fff"/><path d="M0 414H1280" stroke="#fff"/><path d="M684 0V720" stroke="#fff"/><path d="M0 460H1280" stroke="#fff"/><path d="M760 0V720" stroke="#fff"/><path d="M0 506H1280" stroke="#fff"/><path d="M836 0V720" stroke="#fff"/><path d="M0 552H1280" stroke="#fff"/><path d="M912 0V720" stroke="#fff"/><path d="M0 598H1280" stroke="#fff"/><path d="M988 0V720" stroke="#fff"/><path d="M0 644H1280" stroke="#fff"/><path d="M1064 0V720" stroke="#fff"/><path d="M0 690H1280" stroke="#fff"/><path d="M1140 0V720" stroke="#fff"/><path d="M0 736H1280" stroke="#fff"/><path d="M1216 0V720" stroke="#fff"/><path d="M0 782H1280" stroke="#fff"/><path d="M1292 0V720" stroke="#fff"/></g>
    <rect x="56" y="54" width="1168" height="612" rx="28" fill="rgba(255,255,255,.045)" stroke="rgba(255,255,255,.16)"/>
    <rect x="84" y="86" width="280" height="46" rx="23" fill="rgba(255,255,255,.09)" stroke="#35f3ff" stroke-opacity=".45"/>
    <text x="112" y="116" fill="#f7fbff" font-family="Inter, Arial, sans-serif" font-size="24" font-weight="800">RNG Game</text>
    <text x="1010" y="116" fill="#35f3ff" font-family="Inter, Arial, sans-serif" font-size="19" font-weight="800">RoX LAB 3</text>
    <g transform="translate(330 166) scale(1.08)"><circle cx="429" cy="89" r="33" fill="#35f3ff" opacity=".2"/>
      <circle cx="429" cy="89" r="11" fill="#35f3ff" opacity=".8"/><circle cx="530" cy="172" r="42" fill="#2c7dff" opacity=".2"/>
      <circle cx="530" cy="172" r="14" fill="#2c7dff" opacity=".8"/><circle cx="151" cy="255" r="51" fill="#c65cff" opacity=".2"/>
      <circle cx="151" cy="255" r="17" fill="#c65cff" opacity=".8"/><circle cx="252" cy="338" r="60" fill="#35f3ff" opacity=".2"/>
      <circle cx="252" cy="338" r="20" fill="#35f3ff" opacity=".8"/><circle cx="353" cy="161" r="25" fill="#2c7dff" opacity=".2"/>
      <circle cx="353" cy="161" r="8.333333333333334" fill="#2c7dff" opacity=".8"/><circle cx="454" cy="244" r="34" fill="#c65cff" opacity=".2"/>
      <circle cx="454" cy="244" r="11.333333333333334" fill="#c65cff" opacity=".8"/><circle cx="555" cy="327" r="43" fill="#35f3ff" opacity=".2"/>
      <circle cx="555" cy="327" r="14.333333333333334" fill="#35f3ff" opacity=".8"/><circle cx="176" cy="150" r="52" fill="#2c7dff" opacity=".2"/>
      <circle cx="176" cy="150" r="17.333333333333332" fill="#2c7dff" opacity=".8"/></g>
    <rect x="86" y="560" width="410" height="58" rx="18" fill="rgba(0,0,0,.28)" stroke="#35f3ff" stroke-opacity=".35"/>
    <rect x="112" y="581" width="170" height="14" rx="7" fill="#35f3ff" opacity=".78"/>
    <rect x="302" y="581" width="118" height="14" rx="7" fill="rgba(255,255,255,.34)"/>
    <circle cx="1078" cy="564" r="54" fill="#35f3ff" opacity=".18" filter="url(#blur)"/>
    <circle cx="1078" cy="564" r="36" fill="none" stroke="#35f3ff" stroke-width="3" opacity=".78"/>
    <path d="M1054 564h48M1078 540v48" stroke="#fff" stroke-width="5" stroke-linecap="round" opacity=".86"/>
  </svg>