<svg xmlns="http://www.w3.org/2000/svg" width="1280" height="720" viewBox="0 0 1280 720">
    <defs>
      <linearGradient id="bg" x1="0" y1="0" x2="1" y2="1">
        <stop offset="0" stop-color="#05070d"/><stop offset=".45" stop-color="#0c1220"/><stop offset="1" stop-color="#020308"/>
      </linearGradient>
      <radialGradient id="glow" cx=".68" cy=".28" r=".7"><stop offset="0" stop-color="#8a5cff" stop-opacity=".42"/><stop offset=".55" stop-color="#2275ff" stop-opacity=".12"/><stop offset="1" stop-color="#35f3ff" stop-opacity="0"/></radialGradient>
      <filter id="blur"><feGaussianBlur stdDeviation="20"/></filter>
    </defs>
    <rect width="1280" height="720" fill="url(#bg)"/>
    <rect width="1280" height="720" fill="url(#glow)"/>
    <g opacity=".16"><path d="M0 0H1280" stroke="#fff"/><path d="M0 0V720" stroke="#fff"/><path d="M0 46H1280" stroke="#fff"/><path d="M76 0V720" stroke="#fff"/><path d="M0 92H1280" stroke="#fff"/><path d="M152 0V720" stroke="#fff"/><path d="M0 138H1280" stroke="#fff"/><path d="M228 0V720" stroke="#fff"/><path d="M0 184H1280" stroke="#fff"/><path d="M304 0V720" stroke="#fff"/><path d="M0 230H1280" stroke="#fff"/><path d="M380 0V720" stroke="#fff"/><path d="M0 276H1280" stroke="#fff"/><path d="M456 0V720" stroke="#fff"/><path d="M0 322H1280" stroke="#fff"/><path d="M532 0V720" stroke="#fff"/><path d="M0 368H1280" stroke="#fff"/><path d="M608 0V720" stroke="#fff"/><path d="M0 414H1280" stroke="#fff"/><path d="M684 0V720" stroke="#fff"/><path d="M0 460H1280" stroke="#fff"/><path d="M760 0V720" stroke="#fff"/><path d="M0 506H1280" stroke="#fff"/><path d="M836 0V720" stroke="#fff"/><path d="M0 552H1280" stroke="#fff"/><path d="M912 0V720" stroke="#fff"/><path d="M0 598H1280" stroke="#fff"/><path d="M988 0V720" stroke="#fff"/><path d="M0 644H1280" stroke="#fff"/><path d="M1064 0V720" stroke="#fff"/><path d="M0 690H1280" stroke="#fff"/><path d="M1140 0V720" stroke="#fff"/><path d="M0 736H1280" stroke="#fff"/><path d="M1216 0V720" stroke="#fff"/><path d="M0 782H1280" stroke="#fff"/><path d="M1292 0V720" stroke="#fff"/></g>
    <rect x="56" y="54" width="1168" height="612" rx="28" fill="rgba(255,255,255,.045)" stroke="rgba(255,255,255,.16)"/>
    <rect x="84" y="86" width="280" height="46" rx="23" fill="rgba(255,255,255,.09)" stroke="#8a5cff" stroke-opacity=".45"/>
    <text x="112" y="116" fill="#f7fbff" font-family="Inter, Arial, sans-serif" font-size="24" font-weight="800">RPG System</text>
    <text x="1010" y="116" fill="#8a5cff" font-family="Inter, Arial, sans-serif" font-size="19" font-weight="800">RoX LAB 3</text>
    <g transform="translate(330 166) scale(1.08)"><circle cx="91" cy="195" r="35" fill="#8a5cff" opacity=".2"/>
      <circle cx="91" cy="195" r="11.666666666666666" fill="#8a5cff" opacity=".8"/><circle cx="192" cy="278" r="44" fill="#2275ff" opacity=".2"/>
      <circle cx="192" cy="278" r="14.666666666666666" fill="#2275ff" opacity=".8"/><circle cx="293" cy="101" r="53" fill="#35f3ff" opacity=".2"/>
      <circle cx="293" cy="101" r="17.666666666666668" fill="#35f3ff" opacity=".8"/><circle cx="394" cy="184" r="18" fill="#8a5cff" opacity=".2"/>
      <circle cx="394" cy="184" r="6" fill="#8a5cff" opacity=".8"/><circle cx="495" cy="267" r="27" fill="#2275ff" opacity=".2"/>
      <circle cx="495" cy="267" r="9" fill="#2275ff" opacity=".8"/><circle cx="116" cy="90" r="36" fill="#35f3ff" opacity=".2"/>
      <circle cx="116" cy="90" r="12" fill="#35f3ff" opacity=".8"/><circle cx="217" cy="173" r="45" fill="#8a5cff" opacity=".2"/>
      <circle cx="217" cy="173" r="15" fill="#8a5cff" opacity=".8"/><circle cx="318" cy="256" r="54" fill="#2275ff" opacity=".2"/>
      <circle cx="318" cy="256" r="18" fill="#2275ff" opacity=".8"/></g>
    <rect x="86" y="560" width="410" height="58" rx="18" fill="rgba(0,0,0,.28)" stroke="#8a5cff" stroke-opacity=".35"/>
    <rect x="112" y="581" width="170" height="14" rx="7" fill="#8a5cff" opacity=".78"/>
    <rect x="302" y="581" width="118" height="14" rx="7" fill="rgba(255,255,255,.34)"/>
    <circle cx="1078" cy="564" r="54" fill="#8a5cff" opacity=".18" filter="url(#blur)"/>
    <circle cx="1078" cy="564" r="36" fill="none" stroke="#8a5cff" stroke-width="3" opacity=".78"/>
    <path d="M1054 564h48M1078 540v48" stroke="#fff" stroke-width="5" stroke-linecap="round" opacity=".86"/>
  </svg>