<svg xmlns="http://www.w3.org/2000/svg" width="1280" height="720" viewBox="0 0 1280 720">
    <defs>
      <linearGradient id="bg" x1="0" y1="0" x2="1" y2="1">
        <stop offset="0" stop-color="#05070d"/><stop offset=".45" stop-color="#0c1220"/><stop offset="1" stop-color="#020308"/>
      </linearGradient>
      <radialGradient id="glow" cx=".68" cy=".28" r=".7"><stop offset="0" stop-color="#2275ff" stop-opacity=".42"/><stop offset=".55" stop-color="#35f3ff" stop-opacity=".12"/><stop offset="1" stop-color="#f7fbff" stop-opacity="0"/></radialGradient>
      <filter id="blur"><feGaussianBlur stdDeviation="20"/></filter>
    </defs>
    <rect width="1280" height="720" fill="url(#bg)"/>
    <rect width="1280" height="720" fill="url(#glow)"/>
    <g opacity=".16"><path d="M0 0H1280" stroke="#fff"/><path d="M0 0V720" stroke="#fff"/><path d="M0 46H1280" stroke="#fff"/><path d="M76 0V720" stroke="#fff"/><path d="M0 92H1280" stroke="#fff"/><path d="M152 0V720" stroke="#fff"/><path d="M0 138H1280" stroke="#fff"/><path d="M228 0V720" stroke="#fff"/><path d="M0 184H1280" stroke="#fff"/><path d="M304 0V720" stroke="#fff"/><path d="M0 230H1280" stroke="#fff"/><path d="M380 0V720" stroke="#fff"/><path d="M0 276H1280" stroke="#fff"/><path d="M456 0V720" stroke="#fff"/><path d="M0 322H1280" stroke="#fff"/><path d="M532 0V720" stroke="#fff"/><path d="M0 368H1280" stroke="#fff"/><path d="M608 0V720" stroke="#fff"/><path d="M0 414H1280" stroke="#fff"/><path d="M684 0V720" stroke="#fff"/><path d="M0 460H1280" stroke="#fff"/><path d="M760 0V720" stroke="#fff"/><path d="M0 506H1280" stroke="#fff"/><path d="M836 0V720" stroke="#fff"/><path d="M0 552H1280" stroke="#fff"/><path d="M912 0V720" stroke="#fff"/><path d="M0 598H1280" stroke="#fff"/><path d="M988 0V720" stroke="#fff"/><path d="M0 644H1280" stroke="#fff"/><path d="M1064 0V720" stroke="#fff"/><path d="M0 690H1280" stroke="#fff"/><path d="M1140 0V720" stroke="#fff"/><path d="M0 736H1280" stroke="#fff"/><path d="M1216 0V720" stroke="#fff"/><path d="M0 782H1280" stroke="#fff"/><path d="M1292 0V720" stroke="#fff"/></g>
    <rect x="56" y="54" width="1168" height="612" rx="28" fill="rgba(255,255,255,.045)" stroke="rgba(255,255,255,.16)"/>
    <rect x="84" y="86" width="280" height="46" rx="23" fill="rgba(255,255,255,.09)" stroke="#2275ff" stroke-opacity=".45"/>
    <text x="112" y="116" fill="#f7fbff" font-family="Inter, Arial, sans-serif" font-size="24" font-weight="800">UI Framework</text>
    <text x="1010" y="116" fill="#2275ff" font-family="Inter, Arial, sans-serif" font-size="19" font-weight="800">RoX LAB 3</text>
    <g transform="translate(330 166) scale(1.08)"><circle cx="233" cy="301" r="37" fill="#2275ff" opacity=".2"/>
      <circle cx="233" cy="301" r="12.333333333333334" fill="#2275ff" opacity=".8"/><circle cx="334" cy="124" r="46" fill="#35f3ff" opacity=".2"/>
      <circle cx="334" cy="124" r="15.333333333333334" fill="#35f3ff" opacity=".8"/><circle cx="435" cy="207" r="55" fill="#f7fbff" opacity=".2"/>
      <circle cx="435" cy="207" r="18.333333333333332" fill="#f7fbff" opacity=".8"/><circle cx="536" cy="290" r="20" fill="#2275ff" opacity=".2"/>
      <circle cx="536" cy="290" r="6.666666666666667" fill="#2275ff" opacity=".8"/><circle cx="157" cy="113" r="29" fill="#35f3ff" opacity=".2"/>
      <circle cx="157" cy="113" r="9.666666666666666" fill="#35f3ff" opacity=".8"/><circle cx="258" cy="196" r="38" fill="#f7fbff" opacity=".2"/>
      <circle cx="258" cy="196" r="12.666666666666666" fill="#f7fbff" opacity=".8"/><circle cx="359" cy="279" r="47" fill="#2275ff" opacity=".2"/>
      <circle cx="359" cy="279" r="15.666666666666666" fill="#2275ff" opacity=".8"/><circle cx="460" cy="102" r="56" fill="#35f3ff" opacity=".2"/>
      <circle cx="460" cy="102" r="18.666666666666668" fill="#35f3ff" opacity=".8"/></g>
    <rect x="86" y="560" width="410" height="58" rx="18" fill="rgba(0,0,0,.28)" stroke="#2275ff" stroke-opacity=".35"/>
    <rect x="112" y="581" width="170" height="14" rx="7" fill="#2275ff" opacity=".78"/>
    <rect x="302" y="581" width="118" height="14" rx="7" fill="rgba(255,255,255,.34)"/>
    <circle cx="1078" cy="564" r="54" fill="#2275ff" opacity=".18" filter="url(#blur)"/>
    <circle cx="1078" cy="564" r="36" fill="none" stroke="#2275ff" stroke-width="3" opacity=".78"/>
    <path d="M1054 564h48M1078 540v48" stroke="#fff" stroke-width="5" stroke-linecap="round" opacity=".86"/>
  </svg>